<?xml version="1.0" encoding="iso-8859-1"?>
<!-- Generator: Adobe Illustrator 19.0.0, SVG Export Plug-In . SVG Version: 6.00 Build 0)  -->
<svg version="1.1" id="Layer_1" xmlns="http://www.w3.org/2000/svg" xmlns:xlink="http://www.w3.org/1999/xlink" x="0px" y="0px"
	 viewBox="0 0 612 792" style="enable-background:new 0 0 612 792;" xml:space="preserve">
<g id="XMLID_2_">
	<g id="XMLID_61_">
		<g id="XMLID_76_">
			<g id="XMLID_78_">
				<path id="XMLID_89_" style="fill:#253036;" d="M95.837,156.99l-17.076,13.328c-5.298,4.135-6.24,11.781-2.105,17.078
					l86.693,111.072l36.26-28.301l-86.693-111.072C108.781,153.799,101.134,152.856,95.837,156.99z"/>
				<path id="XMLID_88_" style="fill:#253036;" d="M378.076,553.803l17.076-13.329c5.298-4.135,6.24-11.781,2.105-17.078
					L206.428,278.905l-36.26,28.301l190.829,244.491C365.132,556.995,372.779,557.938,378.076,553.803z"/>
				<g id="XMLID_79_">
					<polygon id="XMLID_87_" style="fill:#EF4724;" points="92.032,207.098 102.326,204.038 96.858,213.281 98.452,215.322 
						118.81,209.272 126.083,196.977 139.395,193.021 128.257,178.751 80.894,192.828 					"/>
					<polygon id="XMLID_86_" style="fill:#EF4724;" points="185.07,251.54 180.899,246.197 176.175,254.184 					"/>
					<polygon id="XMLID_85_" style="fill:#EF4724;" points="136.919,203.889 145.813,201.245 141.644,195.902 					"/>
					<polygon id="XMLID_84_" style="fill:#EF4724;" points="187.14,254.193 139.778,268.27 150.916,282.54 161.209,279.481 
						155.742,288.723 163.349,298.469 174.881,289.468 184.967,272.42 198.278,268.463 					"/>
					<polygon id="XMLID_83_" style="fill:#EF4724;" points="126.185,176.098 122.016,170.755 117.291,178.741 					"/>
					<polygon id="XMLID_82_" style="fill:#EF4724;" points="111.66,232.245 121.953,229.186 116.486,238.429 118.08,240.47 
						138.438,234.419 145.711,222.125 159.023,218.169 147.885,203.899 100.522,217.975 					"/>
					<polygon id="XMLID_81_" style="fill:#EF4724;" points="131.288,257.393 141.582,254.333 136.114,263.576 137.707,265.617 
						158.066,259.566 165.338,247.273 178.65,243.316 167.513,229.046 120.15,243.123 					"/>
					<polygon id="XMLID_80_" style="fill:#EF4724;" points="156.547,229.036 165.442,226.393 161.272,221.05 					"/>
				</g>
			</g>
			
				<rect id="XMLID_77_" x="146.744" y="283.145" transform="matrix(0.7883 -0.6153 0.6153 0.7883 -138.4848 174.8733)" style="fill:#48555C;" width="76.288" height="11.083"/>
		</g>
		<g id="XMLID_62_">
			<g id="XMLID_64_">
				<path id="XMLID_75_" style="fill:#253036;" d="M330.155,130.466l-20.361-7.393c-6.317-2.294-13.296,0.968-15.59,7.284
					l-48.09,132.439l43.235,15.699l48.09-132.439C339.732,139.74,336.471,132.76,330.155,130.466z"/>
				<path id="XMLID_74_" style="fill:#253036;" d="M143.758,580.327l20.362,7.393c6.316,2.294,13.296-0.968,15.59-7.284
					l105.856-291.524l-43.236-15.699L136.474,564.737C134.181,571.053,137.442,578.033,143.758,580.327z"/>
				<g id="XMLID_65_">
					<polygon id="XMLID_73_" style="fill:#EF4724;" points="285.674,153.847 293.732,160.945 282.997,161.22 282.113,163.654 
						298.05,177.692 312.33,177.328 322.75,186.508 328.929,169.492 291.852,136.832 					"/>
					<polygon id="XMLID_72_" style="fill:#EF4724;" points="297.414,256.284 299.727,249.913 290.45,250.15 					"/>
					<polygon id="XMLID_71_" style="fill:#EF4724;" points="312.226,190.18 319.19,196.314 321.503,189.943 					"/>
					<polygon id="XMLID_70_" style="fill:#EF4724;" points="296.265,259.447 259.188,226.787 253.01,243.802 261.068,250.9 
						250.333,251.174 246.113,262.796 259.863,267.789 279.666,267.283 290.087,276.462 					"/>
					<polygon id="XMLID_69_" style="fill:#EF4724;" points="330.077,166.329 332.391,159.958 323.114,160.195 					"/>
					<polygon id="XMLID_68_" style="fill:#EF4724;" points="274.786,183.832 282.844,190.931 272.109,191.205 271.225,193.639 
						287.162,207.678 301.442,207.313 311.862,216.493 318.041,199.478 280.964,166.817 					"/>
					<polygon id="XMLID_67_" style="fill:#EF4724;" points="263.898,213.817 271.956,220.916 261.221,221.189 260.337,223.623 
						276.274,237.662 290.553,237.298 300.974,246.478 307.153,229.462 270.076,196.802 					"/>
					<polygon id="XMLID_66_" style="fill:#EF4724;" points="301.338,220.165 308.302,226.299 310.614,219.928 					"/>
				</g>
			</g>
			
				<rect id="XMLID_63_" x="227.695" y="270.312" transform="matrix(0.94 0.3413 -0.3413 0.94 110.1129 -74.1678)" style="fill:#48555C;" width="76.289" height="11.083"/>
		</g>
	</g>
	<g id="XMLID_47_">
		<ellipse id="XMLID_60_" style="opacity:0.3;fill:#303B41;" cx="318.041" cy="745.509" rx="174.02" ry="35.685"/>
		<path id="XMLID_59_" style="fill:#303B41;" d="M315.557,691.236c0,0-7.436,19.62-6.404,34.477c0,0,18.765,19.799,59.391,33.251
			c5.671,1.877,11.851,1.604,17.293-0.86c10.201-4.618,21.508-11.382,28.277-19.713c0,0,0.891-26.449-6.544-29.356
			c-13.859-5.418-40.948-16.714-40.948-16.714L315.557,691.236z"/>
		<path id="XMLID_58_" style="fill:#303B41;" d="M246.581,695.012c-7.88,16.694-18.832,32.236-18.832,37.097
			c0,16.454,0.812,26.233,3.406,27.772c12.531,7.434,67.486,9.603,70.45-4.662c1.305-6.283-1.035-26.701-0.509-33.096
			c0.2-2.43-0.387-17.76-2.711-29.313C280.946,690.676,246.581,695.012,246.581,695.012z"/>
		<path id="XMLID_57_" style="fill:#303B41;" d="M312.821,595.488l2.737,95.748c0,0,15.965,15.128,51.066,1.085l16.293-87.51
			L312.821,595.488z"/>
		<path id="XMLID_56_" style="fill:#303B41;" d="M319.904,517.054l-18.382,80.066c-1.212,5.278,0.187,10.811,3.797,14.848
			c10.999,12.3,37.619,34.623,74.236,15.856c4.47-2.292,7.567-6.626,8.531-11.556l15.638-99.636
			c1.679-8.593-4.681-17.502-13.129-19.802l-50.016,7.842C331.421,502.178,322.028,507.804,319.904,517.054z"/>
		<path id="XMLID_55_" style="fill:#48555C;" d="M386.687,496.829l-0.675,0.106c3.797,3.929,5.904,9.435,4.852,14.819
			l-15.638,99.636c-0.963,4.93-4.06,9.265-8.531,11.556c-19.85,10.174-36.73,8.237-49.808,2.402
			c13.878,9.067,34.026,15.152,58.761,2.475c4.471-2.292,7.567-6.626,8.531-11.556l15.638-99.636
			C401.495,508.038,395.135,499.13,386.687,496.829z"/>
		<path id="XMLID_54_" style="fill:#303B41;" d="M236.956,597.761l9.624,97.251c0,0,28.115,12.355,51.803-2.201l14.051-101.059
			L236.956,597.761z"/>
		<path id="XMLID_53_" style="fill:#303B41;" d="M231.166,518.182l-3.407,89.527c-0.098,2.59,0.452,5.17,1.703,7.44
			c5.584,10.141,26.093,30.499,81.616,11.728c5.499-1.859,8.887-7.446,8.996-13.251l1.566-83.182
			c0.135-7.159-4.923-13.367-11.961-14.682l-61.176-11.429C239.708,502.69,231.507,509.242,231.166,518.182z"/>
		<path id="XMLID_52_" style="fill:#48555C;" d="M255.862,615.149c-1.25-2.27-1.801-4.85-1.702-7.44l3.406-89.527
			c0.216-5.678,3.613-10.37,8.309-12.634l-6.502-1.215c-8.795-1.643-16.996,4.908-17.336,13.849l-3.407,89.527
			c-0.098,2.59,0.452,5.17,1.703,7.44c4.31,7.828,17.594,17.095,48.927,14.404C268.854,627.398,259.381,621.54,255.862,615.149z"/>
		<path id="XMLID_51_" style="fill:#48555C;" d="M214.764,492.493l-8.934,40.967c0,0,132.61,58.292,216.615-9.832l-7.958-38.078
			C414.486,485.55,345.526,550.989,214.764,492.493z"/>
		<path id="XMLID_50_" style="fill:#3E474E;" d="M414.486,485.55c0,0-68.96,65.439-199.722,6.943l-2.974,13.637
			c16.451,16.822,57.306,28.741,105.138,28.741c45.357,0,84.444-10.718,102.397-26.17L414.486,485.55z"/>
		<path id="XMLID_49_" style="fill:#3E474E;" d="M231.154,728.528c0,0,25.794-2.178,66.285,0.701l-4.862-29.325
			c0,0-23.653,7.332-45.156-1.611C247.422,698.293,234.24,721.095,231.154,728.528z"/>
		<path id="XMLID_48_" style="fill:#3E474E;" d="M366.482,693.749L366.482,693.749c-19.493,8.695-35.415,5.546-35.415,5.546
			s39.744,25.341,54.487,20.99c22.438-6.623,20.986-10.074,20.986-10.074L366.482,693.749z"/>
	</g>
	<path id="XMLID_46_" style="fill:#303B41;" d="M422.961,320.12c0,0,83.729,48.642,76.165,71.507
		c-7.563,22.864-22.832,33.571-37.841,26.84c-15.009-6.731-57.992-48.179-57.992-48.179S364.306,334.523,422.961,320.12z"/>
	<g id="XMLID_42_">
		<path id="XMLID_45_" style="fill:#3E474E;" d="M194.693,337.254c-20.8,47.743,23.235,134.892,39.547,144.974
			c48.367,29.892,167.591,7.625,183.99-11.219c1.572-1.806,29.31-111.572,4.732-150.888c-8.138-13.019-21.519-21.886-35.341-28.57
			c-40.063-19.375-91.692-18.7-132.963-3.554C226.414,298.36,204.727,314.221,194.693,337.254z"/>
		<path id="XMLID_44_" style="fill:#EF4724;" d="M427.449,315.258c-6.405-10.245-16.07-17.895-26.628-23.958
			c6.948,31.44,12.614,114.293-126.125,198.127c23.156,3.763,50.291,3.018,75.087-0.253c22.998-16.61,70.591-56.769,85.647-113.508
			c1.539-5.8,2.207-11.825,1.98-17.822C436.771,340.929,433.936,325.637,427.449,315.258z"/>
		<path id="XMLID_43_" style="fill:#EF4724;" d="M419.347,459.427c-17.943,15.463-57.043,26.19-102.419,26.19
			c-40.648,0-76.259-8.608-96.137-21.518c-0.757-0.491-5.903-5.525-14.661-26.135c-0.357-0.841-2.107,1.608-2.107,2.431v38.011
			c0,24.976,50.55,45.223,112.906,45.223c62.356,0,112.906-20.247,112.906-45.223v-38.011c0,0-0.73-1.899-3.834-2.604
			C426,437.79,422.379,456.814,419.347,459.427z"/>
	</g>
	<g id="XMLID_12_">
		<path id="XMLID_41_" style="fill:#253036;" d="M200.819,267.993c-24.119,35.134,36.846,107.747,149.39,98.125
			s77.229-104.946,77.229-104.946S232.897,221.264,200.819,267.993z"/>
		<path id="XMLID_40_" style="fill:#303B41;" d="M210.768,263.397c-22.787,33.194,34.812,101.797,141.141,92.707
			c106.329-9.09,72.964-99.15,72.964-99.15S241.076,219.248,210.768,263.397z"/>
		<path id="XMLID_39_" style="fill:#48555C;" d="M372.581,322.662l-77.424,2.228l3.051,29.001
			c16.111,2.907,34.068,3.892,53.701,2.213c9.759-0.834,18.318-2.362,25.857-4.428L372.581,322.662z"/>
		<path id="XMLID_38_" style="fill:#253036;" d="M210.635,258.837c-22.171,28.092,33.871,86.152,137.326,78.459
			c103.455-7.693,70.992-83.913,70.992-83.913S240.123,221.474,210.635,258.837z"/>
		<g id="XMLID_15_">
			<path id="XMLID_37_" style="fill:#48555C;" d="M379.269,27.432c0,0,63.046,49.528,74.746,133.1
				c16.982,121.3-96.107,160.458-96.107,160.458L317.703,61.975C317.703,61.975,323.559,27.432,379.269,27.432z"/>
			<path id="XMLID_36_" style="fill:#253036;" d="M370.822,31.332c0,0,63.046,49.528,74.746,133.1
				c16.982,121.3-96.108,160.458-96.108,160.458L309.256,65.875C309.256,65.875,315.112,31.332,370.822,31.332z"/>
			<polygon id="XMLID_35_" style="fill:#3E474E;" points="426.019,232.821 435.055,213.367 426.019,187.275 422.444,232.856 			"/>
			<path id="XMLID_34_" style="fill:#3E474E;" d="M184.914,259.982c0,0-30.774-63.378-24.696-157.115
				c1.696-26.152,68.989-89.7,95.918-94.157c68.708-11.372,116.445,18.722,116.445,18.722l-44.342,11.7L184.914,259.982z"/>
			<path id="XMLID_33_" style="fill:#FCC095;" d="M422.444,153.625c0,0,12.611,45.211,0,79.231c0,0-25.071,45.292-62.679,49.47
				c-37.608,4.179-127.572-10.728-158.947-52.65c-31.375-41.922,18.546-63.515,18.546-63.515L422.444,153.625z"/>
			<path id="XMLID_32_" style="fill:#FCC095;" d="M422.444,153.625c0,0,12.611,45.211,0,79.231c0,0-25.071,45.292-62.679,49.47
				c-37.608,4.179-127.572-10.728-158.947-52.65c-31.375-41.922,18.546-63.515,18.546-63.515L422.444,153.625z"/>
			<g id="XMLID_30_">
				<path id="XMLID_31_" style="fill:#FAB082;" d="M428.023,198.07c0.102-17.343-2.881-32.955-4.53-40.184
					c-2.274-1.739-4.927-2.987-7.759-3.847L223.72,165.892c-2.091,3.351-17.89,47.475-17.89,47.475l6.854,28.609
					c10.742,9.18,24.407,16.698,39.351,22.66l8.515-1.362c-2.916-1.71-5.488-4.927-7.161-10.468
					c-3.003-9.948-2.101-19.628-0.196-27.274c1.917-7.691,10.974-10.834,17.563-6.429c13.084,8.747,34.898,17.405,51.579-5.736
					c0,0,37.275,0.631,64.393-7.335c0,0,18.401,12.67,31.297,4.033C422.291,207.208,425.616,202.966,428.023,198.07z"/>
			</g>
			<ellipse id="XMLID_29_" style="fill:#253036;" cx="295.157" cy="206.032" rx="18.575" ry="17.241"/>
			<ellipse id="XMLID_28_" style="fill:#F6F6F6;" cx="285.221" cy="206.032" rx="4.104" ry="3.809"/>
			<ellipse id="XMLID_27_" style="fill:#253036;" cx="408.453" cy="188.791" rx="15.326" ry="17.241"/>
			<ellipse id="XMLID_26_" style="fill:#F6F6F6;" cx="403.293" cy="192.6" rx="4.104" ry="3.809"/>
			<g id="XMLID_21_">
				<path id="XMLID_25_" style="fill:#303B41;" d="M431.08,238.798c0,0-17.776-16.904-52.363-15.526
					c0.347,7.724,0.552,15.529,0.552,23.434c0,28.715-2.373,56.3-6.688,82.098C426.869,314.211,431.08,238.798,431.08,238.798z"/>
				<path id="XMLID_24_" style="fill:#303B41;" d="M215.557,227.898c0,0,128.487,78.01,219.498-14.531l-3.975,25.431
					l-174.944,47.706C256.137,286.504,202.65,263.94,215.557,227.898z"/>
				<path id="XMLID_23_" style="fill:#3E474E;" d="M211.008,223.272c0,0,24.885,74.735,98.614,87.189
					c0,0-52.371,23.958-103.629-23.957C205.993,286.504,191.507,251.413,211.008,223.272z"/>
				<path id="XMLID_22_" style="fill:#3E474E;" d="M378.717,223.272c-3.218,0.129-6.528,0.357-10.038,0.832
					c-41.228,5.572-112.543,62.4-112.543,62.4s52.371,54.6,111.429,43.457c1.722-0.325,3.386-0.72,5.016-1.158
					C384.346,320.99,392.635,249.282,378.717,223.272z"/>
			</g>
			<g id="XMLID_17_">
				<path id="XMLID_20_" style="fill:#303B41;" d="M379.806,198.836c22.348-4.622,41.149-25.492,51.275-37.132
					c0,0-22.286-88.029-89.143-122.572C341.937,39.132,372.581,86.571,379.806,198.836z"/>
				<path id="XMLID_19_" style="fill:#3E474E;" d="M219.365,188.447c0,0,95.348,23.852,160.441,10.389
					c-0.388-116.13-37.869-159.704-37.869-159.704S259.479,61.418,219.365,188.447z"/>
				<path id="XMLID_18_" style="fill:#303B41;" d="M350.208,51.708c-4.815-8.627-8.271-12.576-8.271-12.576
					s-82.458,21.787-122.572,145.972c0,0,33.263,8.13,73.903,12.078c-19.174-8.314-47.408-29.206-16.687-75.044
					C301.202,85.401,329.925,63.666,350.208,51.708z"/>
			</g>
			<path id="XMLID_16_" style="fill:#48555C;" d="M375.365,17.403l3.904,10.029c0,0-167.684,79.085-152.84,255.57
				c0.278,3.306,2.496,20.509,58.792,30.393c3.433,0.602-29.085,5.014-56.296-9.884l-50.697-36.228l0,0
				c-3.862-13.362-5.182-27.303-3.805-41.144c5.186-52.12,24.895-166.922,160.502-222.901L375.365,17.403z"/>
		</g>
		<g id="XMLID_13_">
			<path id="XMLID_14_" style="fill:#303B41;" d="M367.32,328.804c-37.409,0-67.735-21.982-67.735-49.098
				c0-12.473,6.469-23.826,17.041-32.486c-30.325,17.836-57.254,39.285-57.254,39.285s52.371,54.6,111.429,43.457
				c1.722-0.325,3.386-0.72,5.016-1.158c0.161-0.107,0.314-0.349,0.474-0.48C373.349,328.607,370.369,328.804,367.32,328.804z"/>
		</g>
	</g>
	<g id="XMLID_3_">
		<path id="XMLID_11_" style="fill:#48555C;" d="M413.066,405.446c0,0,29.351-39.206,42.686-38.458
			c13.335,0.748,44.748,5.706,44,31.471c-0.748,25.765-71.727,54.599-71.727,54.599S392.197,442.351,413.066,405.446z"/>
		<path id="XMLID_10_" style="fill:#EEA379;" d="M366.623,346.426c0,0,9.793-9.501,16.279-4.391
			c12.048,9.492,10.926,35.856,10.926,35.856s29.315,3.266,33.315,11.169c4,7.903,6.991,29.967,6.991,29.967
			s3.86,28.405-11.519,36.274c-16.079,8.227-53.001-1.87-60.656-39.64C352.001,366.519,366.623,346.426,366.623,346.426z"/>
		<g id="XMLID_6_">
			<path id="XMLID_9_" style="fill:#FCC095;" d="M362.864,345.125c2.636-2.597,5.763-5.117,9.458-5.32
				c5.643-0.31,10.263,5.196,10.979,10.802c0.717,5.606-1.439,11.146-3.719,16.317c-2.28,5.171-4.774,10.477-4.783,16.128
				c8.248,1.671,23.206,3.2,30.809,6.807c3.482,1.652,9.198,3.713,7.277,31.837c-0.217,3.178-1.98,7.35-6.716,6.589
				c-1.602-0.258,1.126,2.803,0.492,14.567c-0.187,3.482-0.465,7.212-2.634,9.943c-1.996,2.514-25.746,27.916-62.752,24.199
				c-29.196-2.933,1.92-19.356,0.429-51.18C340.354,397.028,340.928,366.732,362.864,345.125z"/>
			<path id="XMLID_8_" style="fill:#FAB082;" d="M404.027,452.793c2.169-2.731,2.447-6.46,2.634-9.943
				c0.633-11.763-2.094-14.824-0.492-14.566c4.736,0.761,6.499-3.41,6.716-6.589c1.552-22.718-1.88-28.425-5.091-30.652
				c-13.657,1.449-13.685,12.278-13.685,12.278s3.927,37.583-7.381,45.436c-9.121,6.335-36.209-4.677-46.353-9.176
				c-5.417,22.847-23.744,34.934,0.9,37.41C378.281,480.709,402.031,455.306,404.027,452.793z"/>
			<path id="XMLID_7_" style="fill:#FAB082;" d="M383.301,350.606c-0.201-1.573-0.736-3.122-1.488-4.553
				c-0.711,0.489-1.393,1.042-2.007,1.735c-10.937,12.341-17.11,39.029-17.11,39.029l12.103-3.765
				c0.009-5.651,2.503-10.957,4.783-16.129C381.861,361.753,384.018,356.211,383.301,350.606z"/>
		</g>
		<path id="XMLID_5_" style="fill:#48555C;" d="M341.937,419.379c0.083,0.039,27.062,1.433,33.308,13.583
			c9.39,18.269,2.651,41.489-24.413,47.747c0,0-75.446,11.38-95.51,0.744c-20.063-10.637-110.647-111.289-66.102-149.082
			c30.913-26.228,96.001,79.969,96.001,79.969L341.937,419.379z"/>
		<path id="XMLID_4_" style="fill:#FCC095;" d="M393.828,377.892l-8.835,4.067c0,0,27.027,8.794,30.244,7.713
			c9.777-3.286,11.906-0.611,11.906-0.611S425.522,380.977,393.828,377.892z"/>
	</g>
</g>
</svg>
