<?xml version="1.0" encoding="utf-8"?>
<!-- Generator: Adobe Illustrator 19.0.0, SVG Export Plug-In . SVG Version: 6.00 Build 0)  -->
<svg version="1.1" id="Layer_1" xmlns="http://www.w3.org/2000/svg" xmlns:xlink="http://www.w3.org/1999/xlink" x="0px" y="0px"
	 viewBox="-55 147 500 500" style="enable-background:new -55 147 500 500;" xml:space="preserve">
<style type="text/css">
	.st0{fill:#6932EA;}
</style>
<g>
	<g>
		<g>
			<path class="st0" d="M175.9,421.3c-3.7,0-6.8-1.9-8.6-5.2c-1.4-2.7-2.9-7.9,3.8-12.7c13.9-9.9,27.9-20.1,41.5-29.9l5.5-4
				c0.6-0.5,1.3-1,1.9-1.5c-6.5-5.1-12.9-10.1-19.3-15c-6.5-5.1-13-10.1-19.4-15.1c-1.3-1-2.7-2.1-4-3.1c-2.3-1.8-4.7-3.7-7.1-5.5
				c-3.2-2.6-4-5.3-4.2-7c-0.2-2.3,0.6-4.7,2.3-6.7c2.5-3,5.2-3.7,7.1-3.7c2.2,0,4.4,0.9,6.6,2.5c18.6,14.5,38.4,29.9,58.7,45.8
				c3.5,2.7,5.2,5.7,5.2,8.9c-0.1,3.2-1.9,6.2-5.5,8.8c-13.1,9.5-26.5,19.2-39.5,28.5c-5.5,3.9-11,7.9-16.5,11.8
				c-1.2,0.9-2.6,1.9-4.2,2.4C178.8,421.1,177.3,421.3,175.9,421.3z"/>
		</g>
		<g>
			<path class="st0" d="M91.6,441.8c-1.2,0-2.4-0.2-3.6-0.7c-2.5-1-4.3-2.6-5.2-4.8c-1.2-2.7-0.9-6.2,0.7-10.2
				c12.6-30,25.4-60.4,37.9-89.9c5.3-12.7,10.7-25.3,16-38c0.1-0.3,0.3-0.7,0.4-1c0.5-1.5,1.2-3.3,2.8-4.3c3.1-1.8,5.4-2.6,7.5-2.6
				c0.7,0,1.3,0.1,1.9,0.3c2.3,0.6,3.8,2.5,5.2,4.1c0.5,0.6,1,1.1,1.4,1.5l1.4,1.3l-0.7,1.9c-0.3,0.9-0.6,1.7-0.8,2.4
				c-0.4,1.2-0.7,2.1-1.1,3.1c-9,21.4-18,42.8-27.1,64.3c-9,21.5-18.1,43-27.1,64.5C98.5,440.4,94.5,441.8,91.6,441.8z"/>
		</g>
		<g>
			<path class="st0" d="M63.6,412c-2.3,0-4.3-1.6-5.9-2.8l-0.4-0.3c-10.5-7.5-21.2-15.1-31.4-22.5c-4.4-3.1-8.7-6.3-13.1-9.4
				c-3.8-2.8-5.7-5.8-5.8-9.1c-0.1-3.3,1.8-6.4,5.6-9.3c15.7-12.2,31-24,45.5-35c2.7-2.1,5.5-3.2,8.2-3.2c2.8,0,5.3,1.3,7.1,3.6
				c2.7,3.7,3.2,9.6-3.6,14.8l-0.1,0.1c-11.6,9-23.5,18.3-35.3,27.6l-0.1,0.1c-0.5,0.3-0.9,0.7-1.3,1c12.1,8.8,23.8,17.3,35.1,25.6
				c0.4,0.3,0.8,0.6,1.2,0.8c0.9,0.6,1.8,1.3,2.7,2.1c1.8,1.6,2.9,3.6,3.3,5.6c0.4,2.4-0.3,4.8-2,6.6c-2.3,2.5-6.2,3.4-9.1,3.7
				C64.1,412,63.8,412,63.6,412z"/>
		</g>
		<g>
			<rect x="312.5" y="289.1" class="st0" width="70.5" height="15.7"/>
		</g>
		<g>
			<path class="st0" d="M269.2,388.2l-0.2-2.8c0-0.6-0.1-1.1-0.1-1.7c-0.1-0.9-0.2-1.8-0.2-2.7v-8.3h70.8v15.5H269.2z"/>
		</g>
		<g>
			<path class="st0" d="M269,332v-15.5l2.8-0.2c0.5,0,1.1-0.1,1.6-0.1c1.2-0.1,2.4-0.2,3.8-0.2h51.4c0.8,0,1.6,0,2.3,0
				c3.4,0,6.1,0.2,7.8,2.2c1.9,2.3,1.5,5.3,0.5,11.3l-0.4,2.5h-2.6L269,332L269,332z"/>
		</g>
		<g>
			<rect x="312.5" y="399.7" class="st0" width="70.4" height="15.7"/>
		</g>
		<g>
			<rect x="329.8" y="344.5" class="st0" width="52.7" height="15.5"/>
		</g>
		<g>
			<rect x="329.8" y="427.8" class="st0" width="52.5" height="15.5"/>
		</g>
		<g>
			<rect x="269" y="427.7" class="st0" width="52.6" height="15.6"/>
		</g>
		<g>
			<rect x="268.9" y="344.5" class="st0" width="52.7" height="15.5"/>
		</g>
		<g>
			<rect x="343.6" y="315.7" class="st0" width="38.8" height="16.3"/>
		</g>
		<g>
			<rect x="343.7" y="372.7" class="st0" width="38.8" height="15.9"/>
		</g>
		<g>
			<rect x="269.1" y="288.7" class="st0" width="38.7" height="16.1"/>
		</g>
		<g>
			<rect x="269" y="399.7" class="st0" width="38.7" height="16.3"/>
		</g>
	</g>
	<path class="st0" d="M144.4,604.7H84.3c-7.6,0-13.5,6.2-13.5,13.8S77,632,84.4,632h221.2c7.6,0,13.5-6.2,13.5-13.8
		s-6.2-13.5-13.5-13.5h-60.1v-60.1c0-7.6-6.2-13.8-13.8-13.8s-13.8,6.2-13.8,13.8v60.1h-46.3v-60.1c0-7.6-6.2-13.8-13.8-13.8
		S144,537,144,544.6v60.1L144.4,604.7L144.4,604.7z M430,194c0-17.8-14.5-32-32-32H-8c-17.6,0-32,14.5-32,32v332.1
		c0,17.8,14.5,32,32,32h406c17.8,0,32-14.5,32-32V194z M402.7,530.9H-12.7V189.3h415.4L402.7,530.9L402.7,530.9z"/>
</g>
</svg>
