<?xml version="1.0" encoding="utf-8"?>
<!-- Generator: Adobe Illustrator 19.0.0, SVG Export Plug-In . SVG Version: 6.00 Build 0)  -->
<svg version="1.1" id="Layer_1" xmlns="http://www.w3.org/2000/svg" xmlns:xlink="http://www.w3.org/1999/xlink" x="0px" y="0px"
	 viewBox="-55 147 500 500" style="enable-background:new -55 147 500 500;" xml:space="preserve">
<style type="text/css">
	.st0{fill:#6932EA;}
</style>
<path class="st0" d="M144.4,604.7H84.3c-7.6,0-13.5,6.2-13.5,13.8S77,632,84.4,632h221.2c7.6,0,13.5-6.2,13.5-13.8
	s-6.2-13.5-13.5-13.5h-60.1v-60.1c0-7.6-6.2-13.8-13.8-13.8s-13.8,6.2-13.8,13.8v60.1h-46.3v-60.1c0-7.6-6.2-13.8-13.8-13.8
	S144,537,144,544.6v60.1L144.4,604.7L144.4,604.7z M430,194c0-17.8-14.5-32-32-32H-8c-17.6,0-32,14.5-32,32v332.1
	c0,17.8,14.5,32,32,32h406c17.8,0,32-14.5,32-32V194z M402.7,530.9H-12.7V189.3h415.4L402.7,530.9L402.7,530.9z M220.2,289.5
	l-73.8,127.7c-3.8,6.4-1.4,15,5.2,18.5c6.4,3.6,14.7,1.4,18.5-5L243.9,303c1.9-3.1,2.4-6.9,1.4-10.4s-3.1-6.4-6.4-8.3
	c-2.1-1.2-4.5-1.9-6.9-1.9C227,282.6,222.5,285.2,220.2,289.5L220.2,289.5z M40.5,341.2c-0.9,0.5-1.9,1.2-2.6,1.9
	c-2.6,2.6-4,5.9-4,9.7v0.5c0,3.8,1.4,7.1,4,9.7c0.7,0.7,1.7,1.4,2.6,2.1l0.5,0.5l49.1,49.1c2.6,2.6,5.9,4,9.5,4s7.1-1.4,9.5-4
	c5.5-5.5,5.5-14,0.2-19.5L67,352.9l42.3-42.3c5.2-5.2,5.5-14,0-19.2c-2.6-2.6-6.2-4-9.7-4c-3.8,0-7.1,1.4-9.7,4
	C89.8,291.6,40.5,341.2,40.5,341.2z M352.1,370.2c2.4-2.4,3.8-5.5,4-8.8V360c0-3.6-1.4-7.1-4-9.7c-0.7-0.7-1.7-1.4-2.6-1.9l-0.5-0.2
	L299.9,299c-2.6-2.6-5.9-4-9.5-4s-7.1,1.4-9.7,4s-4,5.9-4,9.7c0,3.6,1.4,7.1,4,9.7l42.3,42.3L280.7,403c-2.6,2.6-4,5.9-4,9.7
	c0,3.6,1.4,7.1,4,9.7s5.9,4,9.7,4c3.6,0,7.1-1.4,9.7-4l49.6-49.6C350.7,371.4,351.4,370.9,352.1,370.2z"/>
</svg>
