<?xml version="1.0" encoding="iso-8859-1"?>
<!-- Generator: Adobe Illustrator 19.0.0, SVG Export Plug-In . SVG Version: 6.00 Build 0)  -->
<svg version="1.1" xmlns="http://www.w3.org/2000/svg" xmlns:xlink="http://www.w3.org/1999/xlink" x="0px" y="0px"
	 viewBox="0 0 500 500" style="enable-background:new 0 0 500 500;" xml:space="preserve">
<g id="BACKGROUND">
</g>
<g id="OBJECTS">
	<g id="_x39_">
	</g>
	<g id="_x38_">
	</g>
	<g id="_x37_">
	</g>
	<g id="_x36_">
	</g>
	<g id="_x35_">
	</g>
	<g id="_x34_">
		<g>
			<path style="fill:#010101;" d="M78.353,247.489c2.712,11.687,6.128,23.165,10.272,34.429c0.739,2.01,1.502,3.971,2.961,5.598
				c1.798,2.004,3.401,1.713,4.315-0.82c2.211-6.127,3.005-12.574,4.249-18.916c1.398-7.129,2.649-14.287,4.29-21.367
				c0.309-1.333,0.95-2.203,2.337-2.602c9.512-2.741,18.93-5.783,28.343-8.842c2.907-0.944,5.719-2.07,8.029-4.166
				c1.289-1.169,1.246-2.27-0.17-3.284c-0.891-0.638-1.897-1.022-2.96-1.304c-11.632-3.095-23.494-5.108-35.272-7.512
				c-1.747-0.356-2.697-1.253-3.089-2.97c-2.736-11.964-5.498-23.921-8.268-35.878c-0.601-2.597-1.821-4.802-4.211-6.301
				c-0.456,0.807-0.916,1.55-1.306,2.329c-0.296,0.593-0.514,1.226-0.748,1.849c-2.398,6.398-3.397,13.133-4.767,19.778
				c-1.294,6.282-2.557,12.572-3.778,18.869c-0.316,1.629-1.163,2.559-2.769,2.956c-1.86,0.46-3.682,1.073-5.534,1.572
				c-7.222,1.945-14.606,3.149-21.904,4.751c-4.335,0.951-8.299,2.744-12.219,4.698c-1.349,0.672-1.758,1.849-1.08,2.854
				c0.595,0.882,1.441,1.609,2.401,1.944c2.508,0.873,5.048,1.69,7.629,2.311c10.05,2.41,20.236,4.236,30.212,6.978
				C77.015,244.91,77.962,245.807,78.353,247.489z M41.513,234.495c-0.889-0.212-1.757-0.528-2.609-0.864
				c-1.285-0.507-1.42-1.11-0.558-2.197c0.345-0.435,0.772-0.751,1.308-0.912c5.327-1.936,10.751-3.549,16.286-4.759
				c6.268-1.372,12.555-2.655,18.838-3.95c1.019-0.21,2.066-0.275,3.1-0.415c0.604-0.083,1.254,0.001,1.765-0.45
				c1.229-4.475,1.759-9.087,2.686-13.621c1.795-8.781,2.812-17.724,5.486-26.323c0.288-0.929,0.726-1.767,1.19-2.607
				c0.353-0.637,0.594-0.357,0.867,0.034c0.995,0.574,1.333,1.569,1.581,2.584c1.574,6.444,3.163,12.884,4.675,19.342
				c1.094,4.672,2.078,9.371,3.107,14.058c0.288,1.311,0.419,2.644,0.448,3.981c0.016,0.728,0.289,1.087,1.007,1.328
				c2.989,1.003,6.114,1.329,9.18,1.942c9.45,1.89,19.027,3.144,28.333,5.752c0.611,0.171,1.172,0.389,1.643,0.816
				c1.71,0.619,1.751,0.795,0.46,1.994c-0.875,0.813-1.935,1.299-3.035,1.711c-9.855,3.686-19.85,6.961-30.122,9.23
				c-2.788,0.616-4.181,1.852-4.566,4.206c-0.003,0.328-0.022,0.655-0.101,0.977c-1.02,5.114-1.962,10.245-3.08,15.337
				c-1.334,6.074-2.096,12.256-3.494,18.314c-0.168,0.73-0.381,1.451-0.573,2.176c-0.264,0.92-0.576,1.83-0.776,2.764
				c-0.221,1.023-0.758,0.904-1.446,0.521c-1.135-0.631-1.696-1.682-2.133-2.838c-3.279-8.668-6.121-17.477-8.383-26.467
				c-0.856-3.398-1.778-6.781-2.587-10.189c-0.484-2.034-1.669-3.086-3.716-3.523C64.663,239.959,53.082,237.25,41.513,234.495z"/>
			<path style="fill:#E2DDE1;" d="M58.051,233.966c3.563,0.433,7.122,0.865,10.596,1.772c3.085,0.805,6.169,1.504,8.916,3.407
				c1.574,1.092,3.387,1.773,4.257,3.639c1.465,3.146,2.839,6.339,3.704,9.702c1.655,6.441,3.784,12.715,6.318,18.859
				c1.34,3.25,2.094,6.693,3.158,10.033c0.087,0.275,0.221,0.533,0.333,0.801c0.192-0.725,0.405-1.445,0.573-2.176
				c1.398-6.059,2.16-12.24,3.494-18.314c1.118-5.092,2.06-10.223,3.08-15.337c-0.008-1.079-0.391-2.12-0.22-3.226
				c0.495-3.193,2.541-4.813,5.487-5.588c4.554-1.199,9.211-1.967,13.763-3.126c6.098-1.552,12.085-3.537,17.935-5.895
				c0.147-0.06,0.267-0.188,0.4-0.284c-0.471-0.428-1.032-0.645-1.643-0.816c-9.306-2.608-18.883-3.862-28.333-5.752
				c-3.065-0.613-6.191-0.939-9.18-1.942c-0.718-0.241-0.991-0.6-1.007-1.328c-0.028-1.337-0.159-2.67-0.448-3.981
				c-1.029-4.687-2.014-9.386-3.107-14.058c-1.512-6.458-3.101-12.898-4.675-19.342c-0.248-1.015-0.586-2.01-1.581-2.584
				c-1.182,3.596-1.253,7.376-1.719,11.078c-0.824,6.53-2.096,12.967-3.417,19.404c-0.433,2.111-0.809,4.243-0.938,6.417
				c-0.161,2.721-1.453,4.72-4.154,5.619c-0.511,0.45-1.161,0.367-1.765,0.45c-1.033,0.14-2.081,0.205-3.1,0.415
				c-6.283,1.295-12.57,2.578-18.838,3.95c-5.535,1.21-10.959,2.823-16.286,4.759c3.266,1.068,6.678,1.368,10.04,1.936
				C52.486,232.929,55.247,233.624,58.051,233.966z M83.574,229.898c1.398-3.494,3.845-5.818,7.8-6.154
				c0.728-0.062,1.439,0.057,2.077,0.356c2.845,1.335,5.14,4.044,4.658,7.68c-0.249,3.323-1.398,6.308-4.118,8.291
				c-3.56,2.596-9.176,0.02-10.148-4.483c-0.114-0.528-0.182-1.066-0.271-1.601C82.683,232.627,83.066,231.166,83.574,229.898z"/>
			<path style="fill:#E2DDE1;" d="M102.582,245.375c-0.05,0.308-0.085,0.631-0.101,0.977
				C102.56,246.03,102.579,245.703,102.582,245.375z"/>
			<path style="fill:#A09D9F;" d="M80.008,245.971c0.809,3.409,1.732,6.791,2.587,10.189c2.262,8.99,5.104,17.799,8.383,26.467
				c0.437,1.156,0.998,2.207,2.133,2.838c0.688,0.383,1.225,0.502,1.446-0.521c0.2-0.934,0.513-1.844,0.776-2.764
				c-0.878-0.369-0.878-1.262-1.07-1.973c-1.111-4.125-2.432-8.176-4.069-12.123c-2.2-5.307-3.712-10.832-5.261-16.35
				c-0.848-3.019-2.01-5.942-3.432-8.747c-0.573-1.133-1.395-2.011-2.507-2.72c-5.924-3.777-12.592-4.936-19.393-5.71
				c-2.826-0.321-5.603-0.94-8.394-1.488c-3.361-0.661-6.796-0.931-10.128-1.772c-0.515-0.13-1.218-0.032-1.425-0.775
				c-0.536,0.161-0.963,0.477-1.308,0.912c-0.863,1.087-0.728,1.69,0.558,2.197c0.852,0.336,1.72,0.652,2.609,0.864
				c11.569,2.755,23.149,5.464,34.779,7.952C78.339,242.885,79.524,243.936,80.008,245.971z"/>
			<path style="fill:#A09D9F;" d="M41.08,231.297c3.331,0.842,6.767,1.111,10.128,1.772c2.791,0.548,5.568,1.167,8.394,1.488
				c6.8,0.773,13.468,1.933,19.393,5.71c1.112,0.709,1.935,1.587,2.507,2.72c1.422,2.805,2.584,5.728,3.432,8.747
				c1.549,5.518,3.061,11.043,5.261,16.35c1.637,3.947,2.958,7.998,4.069,12.123c0.191,0.711,0.191,1.603,1.07,1.973
				c-0.112-0.268-0.247-0.525-0.333-0.801c-1.064-3.34-1.818-6.783-3.158-10.033c-2.535-6.145-4.663-12.418-6.318-18.859
				c-0.864-3.363-2.238-6.557-3.704-9.702c-0.87-1.865-2.683-2.547-4.257-3.639c-2.747-1.903-5.831-2.602-8.916-3.407
				c-3.474-0.907-7.032-1.34-10.596-1.772c-2.805-0.342-5.565-1.037-8.356-1.509c-3.362-0.567-6.774-0.867-10.04-1.936
				C39.862,231.265,40.565,231.167,41.08,231.297z"/>
			<path style="fill:#A19DA0;" d="M139.026,229.035c-7.089,2.623-14.176,5.247-21.66,6.59c-3.331,0.598-6.617,1.43-9.866,2.375
				c-3.526,1.025-4.947,3.055-4.919,6.734c0.001,0.213,0.004,0.427,0.002,0.641c0.385-2.355,1.778-3.59,4.566-4.206
				c10.272-2.27,20.267-5.544,30.122-9.23c1.1-0.412,2.159-0.898,3.035-1.711c1.291-1.199,1.251-1.375-0.46-1.994
				C139.859,228.792,139.395,228.898,139.026,229.035z"/>
			<path style="fill:#A19DA0;" d="M121.511,234.412c-4.552,1.159-9.209,1.927-13.763,3.126c-2.946,0.775-4.992,2.395-5.487,5.588
				c-0.171,1.106,0.212,2.147,0.22,3.226c0.016-0.347,0.051-0.67,0.101-0.977c0.002-0.214-0.001-0.428-0.002-0.641
				c-0.027-3.68,1.393-5.709,4.919-6.734c3.248-0.945,6.535-1.777,9.866-2.375c7.484-1.343,14.571-3.967,21.66-6.59
				c0.369-0.137,0.833-0.243,0.819-0.802c-0.133,0.097-0.253,0.224-0.4,0.284C133.596,230.876,127.608,232.86,121.511,234.412z"/>
			<path style="fill:#A09DA0;" d="M83.412,215.527c0.511-5.464,1.84-10.772,2.905-16.134c0.91-4.583,1.296-9.248,1.936-13.873
				c0.269-1.942,0.36-3.91,0.93-5.802c0.143-0.475,0.21-0.992,0.689-1.288c-0.273-0.39-0.514-0.67-0.867-0.034
				c-0.465,0.84-0.902,1.678-1.19,2.607c-2.674,8.599-3.691,17.542-5.486,26.323c-0.927,4.534-1.456,9.146-2.686,13.621
				c0.32-0.331,0.661-0.64,1.062-0.869C82.468,219.073,83.234,217.428,83.412,215.527z"/>
			<path style="fill:#A09DA0;" d="M83.797,215.329c0.129-2.173,0.505-4.305,0.938-6.417c1.321-6.437,2.594-12.874,3.417-19.404
				c0.466-3.702,0.537-7.481,1.719-11.078c-0.479,0.296-0.547,0.813-0.689,1.288c-0.57,1.892-0.662,3.86-0.93,5.802
				c-0.639,4.625-1.025,9.29-1.936,13.873c-1.064,5.362-2.394,10.67-2.905,16.134c-0.178,1.9-0.944,3.546-2.707,4.552
				c-0.401,0.229-0.742,0.537-1.062,0.869C82.344,220.049,83.636,218.05,83.797,215.329z"/>
			<path style="fill:#010101;" d="M90.332,226.447c-3.474,0.354-6.445,3.668-6.76,7.54c0.089,0.534,0.157,1.072,0.271,1.601
				c0.972,4.504,6.588,7.079,10.148,4.483c2.72-1.983,3.868-4.968,4.118-8.291C96.993,228.106,94.024,226.07,90.332,226.447z
				 M90.525,238.254c-2.706-0.036-4.721-1.961-4.696-4.487c0.025-2.463,2.314-4.819,4.674-4.808c2.781,0.013,4.752,1.843,4.71,4.375
				C95.164,236.249,93.221,238.289,90.525,238.254z"/>
			<path style="fill:#A19DA0;" d="M83.754,231.324c2.164-4.999,8.665-7.53,13.413-2.447c0.791,0.846,0.777,1.889,0.943,2.903
				c0.482-3.636-1.813-6.345-4.658-7.68c-0.638-0.3-1.349-0.419-2.077-0.356c-3.955,0.336-6.402,2.661-7.8,6.154
				c-0.508,1.268-0.891,2.729-0.001,4.089C83.238,233.072,83.378,232.19,83.754,231.324z"/>
			<path style="fill:#A19DA0;" d="M83.754,231.324c-0.375,0.867-0.516,1.749-0.181,2.664c0.314-3.872,3.286-7.186,6.76-7.54
				c3.691-0.378,6.66,1.659,7.777,5.333c-0.166-1.015-0.152-2.057-0.943-2.903C92.419,223.794,85.918,226.325,83.754,231.324z"/>
		</g>
	</g>
	<g id="_x33_">
	</g>
	<g id="_x32_">
	</g>
	<g id="_x31_">
	</g>
</g>
<g id="DESIGNED_BY_FREEPIK">
</g>
</svg>
